<svg width="20" height="20" viewBox="0 0 20 20" fill="none" xmlns="http://www.w3.org/2000/svg">
<path d="M18.1632 16.8367L14.453 13.125C15.5654 11.6754 16.0848 9.85688 15.9057 8.03841C15.7267 6.21993 14.8626 4.53765 13.4888 3.33282C12.115 2.12799 10.3344 1.49084 8.5081 1.55061C6.68181 1.61038 4.94663 2.3626 3.65455 3.65467C2.36247 4.94675 1.61026 6.68193 1.55049 8.50822C1.49072 10.3345 2.12787 12.1152 3.3327 13.489C4.53752 14.8628 6.21981 15.7268 8.03828 15.9059C9.85676 16.0849 11.6753 15.5656 13.1249 14.4531L16.8382 18.1672C16.9254 18.2544 17.0289 18.3236 17.1428 18.3708C17.2568 18.418 17.3789 18.4423 17.5022 18.4423C17.6256 18.4423 17.7477 18.418 17.8616 18.3708C17.9756 18.3236 18.0791 18.2544 18.1663 18.1672C18.2535 18.08 18.3227 17.9765 18.3699 17.8625C18.4171 17.7486 18.4414 17.6265 18.4414 17.5031C18.4414 17.3798 18.4171 17.2577 18.3699 17.1438C18.3227 17.0298 18.2535 16.9263 18.1663 16.8391L18.1632 16.8367ZM3.43739 8.75002C3.43739 7.6993 3.74897 6.67218 4.33271 5.79855C4.91646 4.92491 5.74615 4.244 6.71689 3.84191C7.68762 3.43981 8.75579 3.33461 9.78631 3.53959C10.8168 3.74458 11.7634 4.25054 12.5064 4.99351C13.2494 5.73648 13.7553 6.68307 13.9603 7.7136C14.1653 8.74412 14.0601 9.81229 13.658 10.783C13.2559 11.7538 12.575 12.5835 11.7014 13.1672C10.8277 13.7509 9.80061 14.0625 8.74989 14.0625C7.34137 14.0611 5.99096 13.5009 4.99499 12.5049C3.99901 11.5089 3.43884 10.1585 3.43739 8.75002Z" fill="#F1F5F9"/>
</svg>
